<svg viewBox="0 0 500 500" xmlns="http://www.w3.org/2000/svg" xmlns:xlink="http://www.w3.org/1999/xlink" width="100%" id="blobSvg">
  <path id="blob" d="M463.5,289.5Q468,329,435,353.5Q402,378,370,390Q338,402,314.5,441.5Q291,481,249,488Q207,495,172.5,469.5Q138,444,124,405.5Q110,367,63,351Q16,335,27,292.5Q38,250,41,212.5Q44,175,61.5,140.5Q79,106,120,101Q161,96,189.5,83Q218,70,252.5,54.5Q287,39,327.5,42Q368,45,396,74.5Q424,104,435.5,141Q447,178,453,214Q459,250,463.5,289.5Z" fill="#d1d8e0"></path>
</svg>