<svg viewBox="0 0 500 500" xmlns="http://www.w3.org/2000/svg" xmlns:xlink="http://www.w3.org/1999/xlink" width="100%" id="blobSvg">
  <path id="blob" d="M472,290.5Q472,331,432.5,350.5Q393,370,369,392.5Q345,415,318,450Q291,485,255,454Q219,423,174.5,440.5Q130,458,110,421Q90,384,74.5,351.5Q59,319,55,284.5Q51,250,61,217.5Q71,185,73,144Q75,103,106.5,79.5Q138,56,178,61Q218,66,250.5,65Q283,64,325.5,55Q368,46,382,86.5Q396,127,405.5,158.5Q415,190,443.5,220Q472,250,472,290.5Z" fill="#d1d8e0"></path>
</svg>