<svg viewBox="0 0 500 500" xmlns="http://www.w3.org/2000/svg" xmlns:xlink="http://www.w3.org/1999/xlink" width="100%" id="blobSvg">
  <path id="blob" d="M464,292.5Q485,335,446.5,359Q408,383,377,399.5Q346,416,314.5,425.5Q283,435,245,463.5Q207,492,179,457Q151,422,115,408Q79,394,78.5,353.5Q78,313,51.5,281.5Q25,250,35,212.5Q45,175,63.5,142Q82,109,116,92.5Q150,76,178.5,42Q207,8,250,8.5Q293,9,331,26.5Q369,44,387.5,81.5Q406,119,434,146Q462,173,452.5,211.5Q443,250,464,292.5Z" fill="#d1d8e0"></path>
</svg>